<svg preserveAspectRatio="xMidYMid meet" xmlns="http://www.w3.org/2000/svg" width="1024" height="1024" viewBox="140.5 129 753 753"><defs><mask id="a"><path fill="#fff" d="M0 0h1024v1024H0z"/><rect width="200" height="210" x="408" y="222" rx="120" ry="120"/><rect width="200" height="109" x="408" y="325" rx="2" ry="2"/></mask></defs><g mask="url(#a)" style="display:inline"><path d="M313 433c-7.288 0-16.08-1.212-23 1.56-12.662 5.072-24.693 20.335-35 29.17-5.985 5.13-17.363 11.994-20.397 19.44C232.4 488.58 234 497.216 234 503v252c0 6.583-1.9 16.688.603 22.83 4.213 10.335 22.888 20.99 31.397 28.09 20.684 17.257 41.056 34.954 62 51.883 8.319 6.724 16.526 16.171 26 21.163 7.923 4.175 24.053 1.034 33 1.034 25.993 0 51.967 1 78 1h172c5.78 0 13.524 1.324 19-.742 8.254-3.113 16.24-12.566 23-18.177 15.69-13.022 31.344-26.094 47-39.161 12.38-10.333 24.632-20.82 37-31.166 4.798-4.014 13.133-8.692 15.397-14.758 2.2-5.897.603-14.754.603-20.996V505c0-6.298 1.87-16.268-1.028-21.996-3.056-6.04-10.971-10.757-15.972-15.16-11.949-10.517-24.232-24.61-38-32.616-5.924-3.444-22.643 1.15-24.682-6.287-1.785-6.51.45-15.294.632-22.03.358-13.328-.521-26.612-.521-39.911 0-58.82-.216-111.407-36.584-161-80.702-110.047-256.47-98.846-324.833 18C301.676 286.105 313 363.985 313 433" style="display:inline;fill:#cc5a52;stroke:none"/></g><g style="display:inline"><path d="M526 129v1h3zm-48.333 1.333.666.334zm58 0 .666.334zM471 131l1 1zm70 0 1 1zm-75 1 1 1zm80 0 1 1zm-85 1 1 1zm90 0 1 1zm-94 1 1 1zm98 0 1 1zm-102 1 1 1zm-3 1 1 1zm112 0 1 1zm-115 1 1 1zm-3 1 1 1zm124 0 1 1zm-127 1 1 1zm-3 1 1 1zm136 0 1 1zm-139 1 1 1zm-2 1 1 1zm146 0 1 1zm-149 1 1 1zm-2 1 1 1zm156 0 1 1zm2 1 1 1zM332 433l47 1c3.852-13.032 1-30.412 1-44 0-48.125-7.041-99.824 23.155-141 9.69-13.213 21.903-25.236 35.845-33.935C504.158 174.408 588.936 203.02 621.742 271 632.518 293.331 633 318.727 633 343c0 30.034-.937 59.998-1 90h49c0-70.692 11.927-150.55-30.347-212-70.686-102.749-237.216-96.912-297.344 14C321.149 294.322 332 367.854 332 433m87-285 1 1zm-2 1 1 1zm185 4 1 1zm-194 1 1 1zm-2 1 1 1zm201 1 1 1zm-204 1 1 1zm209 2 1 1zm-214 1 1 1zm217 1 1 1zm-220 1 1 1zm223 1 1 1zm-226 1 1 1zm230 2 1 1zm-234 1 1 1zm237 1 2 2zm-241 2 1 1zm246 2 1 1zm-251 2-1 2zm256 2 3 3zm-265 6-2 3zm280 9 3 3zm-292 4-1 2zm299 4 1 1zm-303 1-1 2zm307 4 1 1zm-311 1 1 1zm314 3 1 1zm-317 1 1 1zm319 2 1 1zm-321 1 1 1zm155 2v1h10zm168 0 1 1zm-325 1 1 1zm148 0 1 1zm29.667.333.666.334zM484 216l1 1zm42 0 1 1zm-46 1 1 1zm51 0 1 1zm139 0 1 1zm-329 1 1 1zm135 0 1 1zm59 0 1 1zm137 2 1 1zm-208 2 1 1zm82 0 1 1zm-208 1 1 1zm119 2 1 1zm218 0 1 1zm-340 3 1 1zm223 0 1 1zm-108 1 1 1zm110 0 1 1zm-226 1 1 1zm229 1 1 1zm-230 1 1 1zm111 1 1 1zm122 0 1 1zm-234 1 1 1zm348 0 1 1zm-239 1 1 1zm-110 1 1 1zm-1 2 1 1zm352 0 1 1zm-108 1 3 3zm-245 1 1 1zm106 0 1 1zm250 5 1 1zm-359 2 1 1zm100 2-1 2zm261 1 1 1zm-363 2 1 1zm263 0 1 1zm-166 3 1 1zm268 0 1 1zm-98 2 1 1zm-269 1 1 1zm368 0 1 1zm-272 1 1 1zm-97 2 1 1zm273 0 1 1zm97 0 1 1zm-275 1 1 1zm-96 2 1 1zm276 0 1 1zm-182 1 1 1zm-1 2 1 1zm-94 1 1 1zm374 0 1 1zm-375 3 1 1zm376 1 1 1zm-93 1 1 1zm-284 2 1 1zm285 0 1 1zm93 1 1 1zm-92 1 1 1zm1 2 1 1zm-288 1 1 1zm90 1 1 1zm290.333.667.334.666zM605 282l1 1zm-200 2 1 1zm-89.667 1.667.334.666zM404 287l1 1zm203 0 1 1zm90 0 1 1zm-294 3 1 1zm205 0 1 1zm-294 2 1 1zm88 2 1 1zm207 0 1 1zm89.333.667.334.666zM401 298l1 1zm209 0 1 1zm-296.667 2.667.334.666zM400 303l1 1zm211 0 1 1zm88 1v62h1v-42zm-300 5v4h1zm213.333 2.667.334.666zM697 340l1 1zm0 23 1 1zm.333 3.667.334.666zM699 368v16h1zm-2 14 1 1zm0 2 1 1zm2 10 1 1zm0 2 1 1zm-2 4v5h1zm.333 6.667.334.666zM699 410l1 1zm0 5v3h1zm0 4v13h1zm-408 14v1h4zm429.667.333.666.334zM723 434l2 2zm-438 3-1 2zm446 4 2 2zm-453 2-1 2zm460 4 2 2zm-468 3-1 2zm27 2.858c-11.84 4.793-23.423 19.46-33 27.857-3.52 3.087-9.398 6.602-10.682 11.374-1.68 6.243-.318 14.463-.318 20.911v237c0 5.909-1.83 15.59 1.028 20.91 2.729 5.082 9.608 9.045 13.972 12.676l30 25.167c14.722 12.27 29.301 24.704 44 37 6.262 5.24 13.24 13.636 21 16.509 5.249 1.942 12.475.738 18 .738h237c9.036 0 23.713 2.792 32-.988 9.458-4.315 18.045-14.317 26-20.93 18.774-15.611 37.48-31.297 56-47.212 7.564-6.501 23.857-15.388 27.397-24.874 1.753-4.7.457-11.048.64-15.995.493-13.402-.015-26.6-.037-40.001-.066-41.02 2.112-81.975.365-123-1.047-24.591-.365-49.369-.365-74 0-8.763 2.755-22.134-4.059-28.714-8.558-8.265-17.991-15.735-26.941-23.57-4.205-3.682-8.608-9.193-14-11.116-8.072-2.88-20.462-.6-29-.6H331c-9.795 0-24.872-2.837-34 .858M746 454l2 2zm-483 2-2 3zm491 5 2 2zm-1 2 1 1zm-499 1 1 1zm508 4 2 2zm-516 3 1 1zm523 3 3 3zm-532 5-1 2zm-4 5v293h1V511zm546 5 1 1zm0 7v85h1v-59z" style="display:inline;fill:#ec766c;stroke:none"/><path d="M477 632c-5.904 23.966-9.158 48.786-14 73-1.824 9.123-6.782 22.895-3.258 31.996C462.77 744.813 470.962 745 478 745h52c7.198 0 15.478 1.2 20.566-5.105 5.706-7.07.563-19.97-.816-27.895-4.297-24.687-10.36-49.2-13.927-74-1.326-9.222 16.705-21.952 21.068-31 15.132-31.377-4.768-70.047-37.891-78.522-59.725-15.28-98.182 74.414-42 103.522" style="display:inline;fill:#cc5a52;stroke:none"/></g><path d="M660 730.145h80.111v9.967H660zm0-20.112h80.111V720H660zM659.889 690H740v9.967h-80.111zm0-19.967H740V680h-80.111zm0-20.033H740v9.967h-80.111z" style="fill:#fff"/><path d="M780 540v45c11.355-1.41 19.882-11.058 19.882-22.5S791.355 541.407 780 540Zm0 45v45a22.674 22.674 0 0 0 19.882-22.5A22.674 22.674 0 0 0 780 585Zm0 45v45a22.674 22.674 0 0 0 19.882-22.5A22.674 22.674 0 0 0 780 630Zm0 45v45a22.674 22.674 0 0 0 19.882-22.5A22.674 22.674 0 0 0 780 675Z" style="fill:#cf5e56;fill-opacity:.996078;fill-rule:evenodd;stroke:#c2433a;stroke-width:1.8139;stroke-opacity:.9"/></svg>